# xmcd CD database file
#
# Track frame offsets:
#	150
#	12585
#	24846
#	36684
#	49421
#	62662
#	76015
#	88866
#	101365
#	114597
#	127765
#	140393
#	149846
#	162537
#	175632
#	187563
#	198410
#	210363
#	221934
#	235514
#	248405
#	260831
#	272228
#	285502
#
# Disc length: 3951 seconds
#
# Revision: 0
# Processed by: cddbd v1.5.1PL0 Copyright (c) Steve Scherf et al.
# Submitted via: CDex 1.51
#
DISCID=560f6d18
DTITLE=Hank Williams - Long Gone Lonesome Blues
DYEAR=2002
DGENRE=Country
TTITLE0=Lovesick Blues
TTITLE1=Lost Highway
TTITLE2=I'll Be A Bachelor 'Till I die
TTITLE3=There'll Be No Teardrops Tonight
TTITLE4=Mind Your Own business
TTITLE5=You're Gonna Change (Or I'm Gonna Leave)
TTITLE6=May You Never Be Alone
TTITLE7=Dera Brother (with Audrey Williams)
TTITLE8=Wedding Bells
TTITLE9=I've Just Told Momma Goodbye
TTITLE10=I'm So Lonesome I Could Cry
TTITLE11=My Bucket's Got A Hole In It
TTITLE12=I Just Don't Like This Kind Of Livin'
TTITLE13=A House Without Love
TTITLE14=Long Gone Lonesome Blues
TTITLE15=Why Don't You Love Me
TTITLE16=Why Should We Try Anymore
TTITLE17=My Son Calls Another Man Daddy
TTITLE18=Too Many Parties And Too Many Pals
TTITLE19=Everything's Okay
TTITLE20=They'll Never Take Her Love Away From Me
TTITLE21=Nobody's Lonesome For Me
TTITLE22=Help Me Understand
TTITLE23=No, No Joe
EXTD=YEAR: 2002
EXTT0=
EXTT1=
EXTT2=
EXTT3=
EXTT4=
EXTT5=
EXTT6=
EXTT7=
EXTT8=
EXTT9=
EXTT10=
EXTT11=
EXTT12=
EXTT13=
EXTT14=
EXTT15=
EXTT16=
EXTT17=
EXTT18=
EXTT19=
EXTT20=
EXTT21=
EXTT22=
EXTT23=
PLAYORDER=
